# xmcd CD database file
# Copyright (C) 1995-1998 Ti Kan
#
# Track frame offsets:
#	183
#	14165
#	26328
#	36433
#	49188
#	61645
#	74493
#	88955
#	103310
#	116240
#	128415
#	139343
#	151358
#	162058
#	172465
#	183738
#	196385
#	208440
#	219210
#	230125
#
# Disc length: 3238 seconds
#
# Revision: 2
# Processed by: cddbd v1.4PL0 Copyright (c) Steve Scherf et al.
# Submitted via: CDex 1.40Beta1
#
DISCID=3a0ca414
DTITLE=Jimmy Reed - Bright Lights, Big City (His Greatest Hits) - Charly Blu
DTITLE=es Masterworks Vol.17 
DYEAR=1999
DGENRE=Blues
TTITLE0=You Don't Have To Go
TTITLE1=I Don't Go For That
TTITLE2=Aint That Lovin' You Baby
TTITLE3=Can't Stand To See You Go
TTITLE4=I Love You Baby
TTITLE5=You've Got Me Dizzy
TTITLE6=Honey, Where You Going
TTITLE7=Little Rain
TTITLE8=The Sun Is Shining
TTITLE9=Honest I Do
TTITLE10=Down In Virginia
TTITLE11=I'm Gonna Get My Baby
TTITLE12=Baby What You Want MeTo Do
TTITLE13=Found Love
TTITLE14=Hush Hush
TTITLE15=Big Boss Man
TTITLE16=Bright Lights, Big City
TTITLE17=Aw Shucks, Hush Your Mouth
TTITLE18=Good Lover
TTITLE19=Shame, Shame, Shame
EXTD=YEAR: 1999 ID3G:   0
EXTT0=
EXTT1=
EXTT2=
EXTT3=
EXTT4=
EXTT5=
EXTT6=
EXTT7=
EXTT8=
EXTT9=
EXTT10=
EXTT11=
EXTT12=
EXTT13=
EXTT14=
EXTT15=
EXTT16=
EXTT17=
EXTT18=
EXTT19=
PLAYORDER=
